<svg width="35" height="35" viewBox="0 0 35 35" fill="none" xmlns="http://www.w3.org/2000/svg">
<path d="M7.29163 26.25V31.7421L9.501 30.4165L16.4456 26.25H23.3333C24.9418 26.25 26.25 24.9419 26.25 23.3333V11.6667C26.25 10.0581 24.9418 8.75 23.3333 8.75H5.83329C4.22475 8.75 2.91663 10.0581 2.91663 11.6667V23.3333C2.91663 24.9419 4.22475 26.25 5.83329 26.25H7.29163ZM5.83329 11.6667H23.3333V23.3333H15.6377L10.2083 26.5912V23.3333H5.83329V11.6667Z" fill="white"/>
<path d="M29.1667 2.91666H11.6667C10.0581 2.91666 8.75 4.22478 8.75 5.83332H26.25C27.8585 5.83332 29.1667 7.14145 29.1667 8.74999V20.4167C30.7752 20.4167 32.0833 19.1085 32.0833 17.5V5.83332C32.0833 4.22478 30.7752 2.91666 29.1667 2.91666Z" fill="white"/>
</svg>
