<svg width="46" height="46" viewBox="0 0 46 46" fill="none" xmlns="http://www.w3.org/2000/svg">
<path d="M30.6667 3.83334H15.3334C13.2193 3.83334 11.5 5.55259 11.5 7.66668V38.3333C11.5 40.4474 13.2193 42.1667 15.3334 42.1667H30.6667C32.7808 42.1667 34.5 40.4474 34.5 38.3333V7.66668C34.5 5.55259 32.7808 3.83334 30.6667 3.83334ZM15.3334 38.3333V7.66668H30.6667L30.6686 38.3333H15.3334ZM5.75004 13.4167H9.58337V9.58334H5.75004V10.5417H3.83337V12.4583H5.75004V13.4167ZM40.25 9.58334H36.4167V13.4167H40.25V12.4583H42.1667V10.5417H40.25V9.58334ZM5.75004 21.0833H9.58337V17.25H5.75004V18.2083H3.83337V20.125H5.75004V21.0833ZM40.25 17.25H36.4167V21.0833H40.25V20.125H42.1667V18.2083H40.25V17.25ZM5.75004 28.75H9.58337V24.9167H5.75004V25.875H3.83337V27.7917H5.75004V28.75ZM40.25 24.9167H36.4167V28.75H40.25V27.7917H42.1667V25.875H40.25V24.9167ZM5.75004 36.4167H9.58337V32.5833H5.75004V33.5417H3.83337V35.4583H5.75004V36.4167ZM40.25 32.5833H36.4167V36.4167H40.25V35.4583H42.1667V33.5417H40.25V32.5833Z" fill="white"/>
</svg>
