<svg width="58" height="58" viewBox="0 0 58 58" fill="none" xmlns="http://www.w3.org/2000/svg">
<path d="M51.8085 12.2984C51.45 12.1102 51.05 12.0149 50.6451 12.0212C50.2402 12.0276 49.8434 12.1353 49.4909 12.3347C47.8379 13.2747 46.2163 13.7291 44.5295 13.7291C39.6116 13.7291 34.9788 9.79234 30.7013 5.53659C29.7951 4.63518 28.1324 4.63518 27.2262 5.53659C23.1807 9.56759 18.3618 13.6856 13.3158 13.6856C11.6483 13.6856 10.0509 13.2409 8.43899 12.3298C7.71883 11.9287 6.84883 11.9166 6.11899 12.3008C5.38916 12.6851 4.90824 13.4149 4.84299 14.2366C4.81641 14.5483 2.56166 45.3439 28.2436 53.0023C28.4678 53.0698 28.7006 53.104 28.9347 53.1038H29C29.2344 53.1038 29.464 53.07 29.6887 53.0048C55.4432 45.3439 53.1183 14.5411 53.0917 14.2317C53.0572 13.8277 52.9216 13.4388 52.6973 13.101C52.4731 12.7631 52.1674 12.4871 51.8085 12.2984ZM28.9662 48.1666C12.1002 42.717 9.79233 25.4209 9.59899 18.0138C10.8194 18.3522 12.0616 18.5189 13.3134 18.5189C19.3357 18.5189 24.5509 14.732 28.9637 10.585C33.5385 14.906 38.5893 18.5624 44.5319 18.5624C45.8127 18.5624 47.0863 18.3836 48.3382 18.0307C48.1593 25.4378 45.8707 42.7218 28.9662 48.1666Z" fill="white"/>
</svg>
