<svg id="Capa_1" data-name="Capa 1" xmlns="http://www.w3.org/2000/svg" viewBox="0 0 612 792"><defs><style>.cls-1{fill:#79144d;}</style></defs><g id="color_index_0" data-name="color index 0"><path class="cls-1" d="M303.57,107.63,298.52,104h-.34l-5.07,3.68c1.74,0,3.49-.08,5.24-.08S301.83,107.58,303.57,107.63Z"/><path class="cls-1" d="M132.27,262a187.91,187.91,0,0,1,17.4-50l-6,4.34a192.07,192.07,0,0,0-12.23,33.83Z"/><path class="cls-1" d="M465.18,250.1A190.45,190.45,0,0,0,453,216.27l-6-4.34a187.56,187.56,0,0,1,17.4,50Z"/><path class="cls-1" d="M319.93,119.53l-5.9-4.29c-5.18-.49-10.4-.77-15.7-.77s-10.52.26-15.69.77l-5.9,4.29a160.44,160.44,0,0,1,43.19,0Z"/><path class="cls-1" d="M314.31,132.16a151.24,151.24,0,0,1,33.25,7.45l-8.88-6.46a152.83,152.83,0,0,0-24-4.59Z"/><path class="cls-1" d="M146.75,243.52c-.35,1.11-.69,2.23-1,3.36-.13.42-.25.85-.36,1.27-.77,2.77-1.52,5.54-2.15,8.33h0c-1.27,5.57-2.29,11.21-3,16.93h0c-.08.6-.14,1.21-.2,1.83-.13,1.08-.27,2.16-.38,3.26-.07.7-.12,1.4-.18,2.09-.09,1.1-.19,2.18-.27,3.27,0,.66-.09,1.3-.12,1.95-.08,1.21-.12,2.42-.17,3.64,0,.54,0,1.08-.06,1.63-.05,1.75-.08,3.5-.08,5.26v78h3.41v-78c0-1.76,0-3.49.08-5.22,0-.43,0-.87,0-1.3.05-1.37.11-2.75.2-4.12,0-.39.05-.79.08-1.16.11-1.61.23-3.23.39-4.82a2.51,2.51,0,0,0,0-.31c.17-1.83.39-3.66.62-5.48h0c.72-5.61,1.71-11.15,2.93-16.56h0a170.5,170.5,0,0,1,6.56-21.8l-.08,0c.91-2.43,1.88-4.86,2.88-7.25l-2.82-1.86c-1.11,2.58-2.17,5.19-3.14,7.82h0c-1,2.62-1.89,5.29-2.74,8C147,242.62,146.89,243.08,146.75,243.52Z"/><path class="cls-1" d="M177.55,191.66l-9,6.51c-1.92,2.83-3.79,5.71-5.55,8.66l2.78,1.85A168.36,168.36,0,0,1,177.55,191.66Z"/><path class="cls-1" d="M251.7,138.89a148.08,148.08,0,0,1,46.63-7.56v-3.6a149.83,149.83,0,0,0-16.31.9v0a149.24,149.24,0,0,0-24,4.58l-.16.11c-1.73.49-3.47,1-5.19,1.54l-.63,2.7-3.21,2.33c1-.35,1.92-.69,2.9-1Z"/><path class="cls-1" d="M432.79,240.43a156.69,156.69,0,0,0-9.7-21.1l-2.95,1.82a154.05,154.05,0,0,1,9.48,20.59Z"/><path class="cls-1" d="M323.82,149.76c34.21,6.59,64.81,26.31,86.17,55.55l2.7-2.21c-21.89-29.94-53.24-50.13-88.27-56.89Z"/><path class="cls-1" d="M298.33,147.34v-3.61a137.64,137.64,0,0,0-23.67,2.05l.56,3.55A135.3,135.3,0,0,1,298.33,147.34Z"/><path class="cls-1" d="M256,154.14l-1-3.43a144.09,144.09,0,0,0-61.28,40.37l2.47,2.49A140.84,140.84,0,0,1,256,154.14Z"/><path class="cls-1" d="M439.35,420.82c1.18-3,2.33-6.09,3.41-9.17V395l-3.41,1.62Z"/><path class="cls-1" d="M153.9,411.65q1.64,4.62,3.41,9.17V296.3a152.87,152.87,0,0,1,29.92-91.76l-2.68-2.23c-20.05,27.05-30.65,59.54-30.65,94Z"/><path class="cls-1" d="M442.76,313.14V296.3a161.15,161.15,0,0,0-3.5-33.52l-3.33.79a158.32,158.32,0,0,1,3.41,32.73v16.84Z"/><path class="cls-1" d="M169.07,296.3h3.41c0-41.49,17.83-79.87,48.94-105.25l-2.09-2.85C187.38,214.27,169.07,253.67,169.07,296.3Z"/><path class="cls-1" d="M424.2,453.8q1.74-3.27,3.41-6.58V419.1H424.2Z"/><path class="cls-1" d="M216.78,212l2.43,2.52a113.49,113.49,0,0,1,13.54-12.43l-2-2.89A116.16,116.16,0,0,0,216.78,212Z"/><path class="cls-1" d="M409.05,479.17c1.16-1.74,2.29-3.49,3.41-5.26V408.64c-1.13.48-2.26,1-3.41,1.44Z"/><path class="cls-1" d="M184.22,473.91c1.12,1.77,2.27,3.52,3.41,5.26V466.48c-1.14.1-2.27.22-3.41.31Z"/><path class="cls-1" d="M412.46,298.43V296.3a124.83,124.83,0,0,0-26.33-77l-2.61,2.3a121.18,121.18,0,0,1,25.53,74.73v2.13Z"/><path class="cls-1" d="M372.9,209.82l2.3-2.67a110.53,110.53,0,0,0-76.87-31.42,108.25,108.25,0,0,0-35.83,6.06l1.07,3.42a105.16,105.16,0,0,1,34.75-5.88A107.37,107.37,0,0,1,372.9,209.82Z"/><path class="cls-1" d="M393.9,451.93h3.41V414.86l-3.41,1.34Z"/><path class="cls-1" d="M204.3,263.6l3.24,1.13c12.91-41.49,49.39-69.36,90.79-69.36a91.91,91.91,0,0,1,11.86.77l.41-3.57a96.38,96.38,0,0,0-12.27-.8C255.46,191.75,217.67,220.62,204.3,263.6Z"/><path class="cls-1" d="M202.79,296.3a106.87,106.87,0,0,1,1.48-17.82l-3.36-.64a111.44,111.44,0,0,0-1.53,18.46v30h3.41Z"/><path class="cls-1" d="M393.9,496.37c0,1.24,0,2.47-.1,3.7,1.18-1.48,2.36-3,3.51-4.47V469.84H393.9Z"/><path class="cls-1" d="M202.79,464.88l-3.41.39V495.6c1.14,1.5,2.32,3,3.5,4.47,0-1.23-.09-2.46-.09-3.7Z"/><path class="cls-1" d="M217.94,462.9c-1.15.16-2.28.33-3.41.47v33a92.91,92.91,0,0,0,2.12,19.74q2.37,2.58,4.82,5.11A89.14,89.14,0,0,1,218,496.35V462.9Z"/><path class="cls-1" d="M378.74,496.37a89.49,89.49,0,0,1-3.51,24.84c1.62-1.68,3.24-3.39,4.82-5.1a93.47,93.47,0,0,0,2.1-19.73V420.71L378.74,422Z"/><path class="cls-1" d="M292.24,574.63c2,1.08,4.06,2.15,6.11,3.16,2.06-1,4.09-2.09,6.12-3.17-2,.16-4.06.26-6.12.26S294.26,574.8,292.24,574.63Z"/><path class="cls-1" d="M343.47,246.5l2.35-2.6a69.12,69.12,0,0,0-15.11-11.57l-1.61,3.17A65.18,65.18,0,0,1,343.47,246.5Z"/><path class="cls-1" d="M233.09,296.3c0-38,29.27-68.92,65.24-68.92a61.11,61.11,0,0,1,13.1,1.4l.68-3.54a65.61,65.61,0,0,0-13.78-1.46c-37.85,0-68.65,32.54-68.65,72.52v5.55h3.41Z"/><path class="cls-1" d="M298.33,565.29c-36,0-65.24-30.92-65.24-68.92V464.72h-3.41v31.65a74.52,74.52,0,0,0,17.73,48.57,68.68,68.68,0,0,0,27.25,19.5,65.06,65.06,0,0,0,23.69,4.45,65.92,65.92,0,0,0,23.39-4.27,68.08,68.08,0,0,0,28-20.07,73.91,73.91,0,0,0,12.56-21.78l-3.17-1.31C349.29,548.09,325.43,565.29,298.33,565.29Z"/><path class="cls-1" d="M363.58,496.37a73.24,73.24,0,0,1-.5,8.52l3.38.45a78.81,78.81,0,0,0,.52-9V448.58h-3.4v47.79Z"/><path class="cls-1" d="M363.58,433.18H367v-7l-3.4,1.2Z"/><path class="cls-1" d="M244.85,458.54v37.83c0,31.16,24,56.51,53.5,56.51s53.5-25.35,53.5-56.51V431.31c-1.13.38-2.28.74-3.41,1.11v63.95c0,29.18-22.47,52.91-50.09,52.91s-50.09-23.73-50.09-52.91V457.92C247.11,458.14,246,458.33,244.85,458.54Z"/><path class="cls-1" d="M336.68,436.12c-1.13.35-2.26.71-3.41,1.05v29.69h3.41Z"/><path class="cls-1" d="M260,455.63v40.74a41.93,41.93,0,0,0,8.82,25.87l2.62-2.3a38.28,38.28,0,0,1-8-23.59V454.91C262.26,455.17,261.13,455.4,260,455.63Z"/><path class="cls-1" d="M275.48,528.92a37.09,37.09,0,0,0,14.44,7l.74-3.52A33.74,33.74,0,0,1,277.51,526Z"/><path class="cls-1" d="M301.66,533.11l.31,3.59c16.83-1.67,30.81-15.06,34-32.57l-3.35-.69C329.72,519.38,317,531.59,301.66,533.11Z"/><path class="cls-1" d="M275.16,296.3v5.8h3.4v-5.8a21.69,21.69,0,0,1,2-9.16l-3.07-1.57A25.32,25.32,0,0,0,275.16,296.3Z"/><path class="cls-1" d="M275.16,452.41v44c0,13.5,10.39,24.48,23.17,24.48s23.18-11,23.18-24.48V440.61l-3.41,1v54.8c0,11.52-8.87,20.88-19.77,20.88s-19.77-9.38-19.77-20.88V451.64Z"/><path class="cls-1" d="M290.31,448.87v47.5a8,8,0,1,0,16.05,0V465.16H303v31.22a4.62,4.62,0,1,1-9.23,0V448Z"/><path class="cls-1" d="M306.37,444.78l-3.4.9V446h3.4Z"/><path class="cls-1" d="M551.2,304.45c-4.17-15.82-35.46-19-93.36-12.78a174.45,174.45,0,0,0-29.67-93.43L419.59,192c21.93,28.48,34.93,64.85,34.93,104.31v59.78c-2.32,1-4.68,2-7.08,3.05l-4.66,2V330.82h-3.41v31.67c-3.83,1.59-7.75,3.17-11.74,4.78v-71c0-75.3-58-136.56-129.28-136.56a123.92,123.92,0,0,0-69.63,21.47l1.85,3a120.64,120.64,0,0,1,67.78-20.9c69.39,0,125.87,59.64,125.87,133v72.36q-5.76,2.28-11.75,4.56V337.66h-3.4V374.5q-5.79,2.19-11.75,4.36V296.29c0-48.09-30.78-89.79-74.88-101.43l-.82,3.51c42.56,11.22,72.29,51.5,72.29,97.93v83.8c-3.86,1.39-7.76,2.78-11.74,4.16V324.44h-3.41v61q-5.81,2-11.74,4V296.3a76.28,76.28,0,0,0-4.31-25.38l-3.19,1.26a72.24,72.24,0,0,1,4.1,24.12v94.23c-3.87,1.27-7.79,2.52-11.74,3.78V363.16h-3.41v32.21q-5.81,1.81-11.74,3.58V296.3c0-22.32-17.2-40.5-38.35-40.5S260,274,260,296.3V418.91l-11.74,2.55V296.32c0-29.18,22.47-52.91,50.09-52.91s50.09,23.73,50.09,52.91v43.49h3.41V296.32c0-31.16-24-56.51-53.5-56.51s-53.5,25.35-53.5,56.51V422.18c-9.14,1.9-18.13,3.66-26.9,5.28V296.32c0-46.82,36.07-84.93,80.4-84.93s80.4,38.11,80.4,84.93v7.25h3.4v-7.25c0-48.82-37.6-88.53-83.8-88.53s-83.85,39.69-83.85,88.51V428.07q-6,1.08-11.74,2.08V405.29h-3.41v25.45c-4,.67-7.89,1.31-11.75,1.91V296.32A121.67,121.67,0,0,1,197,249.23l-3.12-1.45a125.59,125.59,0,0,0-9.62,48.54V433.19c-4,.63-7.9,1.2-11.74,1.75V363.18h-3.41v72.24c-55.9,7.84-94.47,8.69-93.74,4.17,1.07-6.61,16.33-34.4,67.07-59.95C88.77,404.88,59.77,427.82,64,443.75c7.33,27.74,122.36,19.05,256.9-19.43S558.53,332.18,551.2,304.45ZM321.53,403.39V296.3c0-13.5-10.4-24.48-23.18-24.48a21.94,21.94,0,0,0-3.81.33l.56,3.55a19.56,19.56,0,0,1,3.26-.28c10.91,0,19.77,9.38,19.77,20.88V404.36q-5.88,1.63-11.74,3.22V381.16H303v27.32q-4.62,1.23-9.23,2.41V296.32a4.62,4.62,0,1,1,9.23,0v54.16h3.41V296.32a8,8,0,1,0-16.05,0V411.75c-3.94,1-7.84,1.95-11.75,2.88V325h-3.4v90.46q-5.91,1.4-11.75,2.71V296.32c0-20.34,15.67-36.89,34.92-36.89s34.93,16.55,34.93,36.89V400q-5.07,1.5-10.23,3C322.53,403.1,322,403.24,321.53,403.39Zm218.75-95.76c-1.49,5.87-32.4,25-82.35,47V296.3c0-1.53-.05-3.06-.08-4.6C512.14,288,541.87,301.28,540.28,307.63Z"/><rect class="cls-1" x="169.07" y="313.36" width="3.41" height="21.75"/><rect class="cls-1" x="199.38" y="343.55" width="3.41" height="41.36"/><rect class="cls-1" x="229.68" y="339.79" width="3.41" height="20.05"/><rect class="cls-1" x="229.68" y="377.32" width="3.41" height="20.47"/><polygon class="cls-1" points="133.84 223.44 129.94 226.29 130.29 231.82 133.84 223.44"/><polygon class="cls-1" points="466.75 226.29 462.83 223.44 466.39 231.82 466.75 226.29"/></g><g id="text_group" data-name="text group"><path class="cls-1" d="M75.15,628.57h0V600.44a9.85,9.85,0,0,1,2.69-7,8.73,8.73,0,0,1,6.6-2.87h35.81V601H84.88v27.09h35.37V638.4H84.44a8.74,8.74,0,0,1-6.6-2.85A9.83,9.83,0,0,1,75.15,628.57Zm64.27,9.83h-9.61V587.28h9.61v12.61h18.22a8.52,8.52,0,0,1,6.41,2.86,9.51,9.51,0,0,1,2.7,6.76h0V638.4h-9.64V610.07H139.42Zm35.23-9.62h0V609.51a9.48,9.48,0,0,1,2.72-6.76,8.58,8.58,0,0,1,6.41-2.86h18.74a8.56,8.56,0,0,1,6.45,2.86,9.56,9.56,0,0,1,2.67,6.76h0v14.75H184.29v4h27.35V638.4H183.78a8.55,8.55,0,0,1-6.42-2.85A9.54,9.54,0,0,1,174.65,628.78Zm9.64-18.71v5.28H202v-5.28Zm46.25,28.33h-9.63V609.51a9.48,9.48,0,0,1,2.71-6.76,8.68,8.68,0,0,1,6.5-2.86h20.09v10.18H230.54Zm36.2,0H257.1V609.51a9.44,9.44,0,0,1,2.72-6.76,8.66,8.66,0,0,1,6.49-2.86H286.4v10.18H266.74Zm25.93-9.62h0V600h9.6v28.23h17.8V600h9.61v42.56A9.59,9.59,0,0,1,327,649.4a8.55,8.55,0,0,1-6.43,2.82H298.45V642h21.62V638.4H301.85a8.61,8.61,0,0,1-6.48-2.85A9.53,9.53,0,0,1,292.67,628.78ZM378.53,601H360.82V590.58h45.27V601H388.35V638.4h-9.82Zm35.05,27.81h0V609.51a9.48,9.48,0,0,1,2.72-6.76,8.56,8.56,0,0,1,6.4-2.86h18.74a8.53,8.53,0,0,1,6.45,2.86,9.56,9.56,0,0,1,2.67,6.76h0v14.75H423.22v4h27.34V638.4H422.7a8.55,8.55,0,0,1-6.42-2.85A9.53,9.53,0,0,1,413.58,628.78Zm9.64-18.71v5.28h17.71v-5.28Zm35.42,18.71h0V609.51a9.48,9.48,0,0,1,2.71-6.76,8.58,8.58,0,0,1,6.41-2.86h27.8v10.18H468.27v18.18h27.35V638.4H467.76a8.55,8.55,0,0,1-6.42-2.85A9.53,9.53,0,0,1,458.64,628.78Zm54.82,9.62h-9.6V587.28h9.6v12.61h18.23a8.56,8.56,0,0,1,6.42,2.86,9.53,9.53,0,0,1,2.68,6.76h0V638.4h-9.62V610.07H513.46Z"/></g><g id="tagline_group" data-name="tagline group"><path class="cls-1" d="M78.43,662.73h0a4.87,4.87,0,0,0,.63,2.53,2.27,2.27,0,0,0,1.47,1.23h0l8.28,1.89a5.13,5.13,0,0,1,3.4,2.28,7.73,7.73,0,0,1,1.05,4.07h0A6.81,6.81,0,0,1,91.88,679q-1.38,1.77-4.57,1.77h-2.9a18.51,18.51,0,0,1-3.28-.24,6.85,6.85,0,0,1-2.39-.91,3.9,3.9,0,0,1-1.61-2,9.54,9.54,0,0,1-.52-3.44h0c0-.81.33-1.22,1-1.22h0c.59,0,.88.41.88,1.22h0c0,2,.41,3.34,1.23,3.89s2.4.84,4.7.84H88a2.86,2.86,0,0,0,2.65-1.33,5.41,5.41,0,0,0,.81-2.86h0a5.7,5.7,0,0,0-.68-2.93,2.58,2.58,0,0,0-1.42-1.3h0l-8.21-1.92a5.84,5.84,0,0,1-3.49-1.94,6.46,6.46,0,0,1-1-3.9h0a6.49,6.49,0,0,1,1.44-4.23c1-1.16,2.54-1.75,4.75-1.75h2.66a18.51,18.51,0,0,1,3.28.24,7.23,7.23,0,0,1,2.38.9,3.79,3.79,0,0,1,1.62,2,9.38,9.38,0,0,1,.52,3.43h0c0,.81-.31,1.21-.94,1.21h0c-.61,0-.91-.4-.91-1.21h0q0-3.06-1.23-3.87c-.82-.52-2.39-.78-4.72-.78H82a3,3,0,0,0-2.73,1.28A5,5,0,0,0,78.43,662.73ZM116.58,670h0v1.48H101.83V674a8.1,8.1,0,0,0,.31,2.51,2.33,2.33,0,0,0,1.13,1.38,5,5,0,0,0,1.81.59,21.1,21.1,0,0,0,2.73.13h4.69a1.84,1.84,0,0,0,1.52-.51,3,3,0,0,0,.41-1.78h0c0-.81.3-1.22.89-1.22s.91.45.91,1.33h0a9.14,9.14,0,0,1-.1,1.48,3.87,3.87,0,0,1-.43,1.28,2.17,2.17,0,0,1-1.09,1,4.3,4.3,0,0,1-1.87.36h-4.93q-4,0-5.9-1.32c-1.26-.87-1.88-2.6-1.88-5.18h0v-4c0-2.59.62-4.32,1.88-5.19s3.22-1.32,5.9-1.32h1q4,0,5.89,1.32T116.58,670Zm-7.75-4.58h-1a10.07,10.07,0,0,0-4.66.75c-.85.5-1.29,1.63-1.32,3.38h13c0-1.75-.47-2.88-1.32-3.38A10,10,0,0,0,108.83,665.39Zm27,15.1h-4.93q-4,0-5.9-1.32T123.15,674h0v-4q0-3.88,1.89-5.19t5.9-1.32h4.93a4.3,4.3,0,0,1,1.87.36,2.12,2.12,0,0,1,1.07,1,4.39,4.39,0,0,1,.44,1.29,9,9,0,0,1,.11,1.48h0c0,.86-.3,1.3-.91,1.3s-.91-.41-.91-1.22h0a2.94,2.94,0,0,0-.41-1.8,1.89,1.89,0,0,0-1.5-.49h-4.69a23.91,23.91,0,0,0-2.75.12,5.12,5.12,0,0,0-1.79.6,2.33,2.33,0,0,0-1.14,1.38A8.41,8.41,0,0,0,125,670h0v4a8.46,8.46,0,0,0,.3,2.51,2.28,2.28,0,0,0,1.14,1.38,4.91,4.91,0,0,0,1.79.59,21.45,21.45,0,0,0,2.75.13h4.69a1.84,1.84,0,0,0,1.51-.51,3,3,0,0,0,.4-1.78h0c0-.81.3-1.22.91-1.22s.91.45.91,1.33h0a9,9,0,0,1-.11,1.48,4.15,4.15,0,0,1-.44,1.28,2.12,2.12,0,0,1-1.07,1A4.3,4.3,0,0,1,135.87,680.49ZM154,678.56h1a5.68,5.68,0,0,0,4.47-1.68A7.08,7.08,0,0,0,161,672h0v-7.53c0-.84.31-1.25.92-1.25s.91.41.91,1.25h0v15c0,.86-.28,1.28-.84,1.28h0c-.66,0-1-.44-1-1.33h0v-1.25a7.55,7.55,0,0,1-6,2.33h-1q-4,0-5.88-1.32T146.26,674h0v-9.53c0-.84.3-1.25.88-1.25h0c.63,0,1,.41,1,1.25h0V674a8.46,8.46,0,0,0,.3,2.51,2.26,2.26,0,0,0,1.11,1.38,4.85,4.85,0,0,0,1.79.59,21.07,21.07,0,0,0,2.74.13Zm25.47-13.17h-1.61a5.14,5.14,0,0,0-4.17,1.7,7.21,7.21,0,0,0-1.46,4.87h0v7.53c0,.84-.3,1.25-.91,1.25s-.91-.41-.91-1.25h0v-15c0-.86.28-1.29.85-1.29h0c.65,0,1,.44,1,1.33h0v1.25a7.14,7.14,0,0,1,5.63-2.33h1.61c.81,0,1.21.32,1.21,1s-.4,1-1.21,1Zm7.63,15.55h0c-.58,0-.86-.4-.86-1.19h0v-15.5c0-.81.3-1.22.91-1.22s.89.41.89,1.22h0v15.5C188.07,680.54,187.76,680.94,187.13,680.94Zm.05-24.16h0a2,2,0,0,1,1.16.45,1.24,1.24,0,0,1,0,2.14,2.06,2.06,0,0,1-1.16.44h0a2,2,0,0,1-1.2-.44,1.27,1.27,0,0,1,0-2.14A2,2,0,0,1,187.18,656.78Zm10.47,8.61V674c0,2,.4,3.27,1.2,3.81s2.28.8,4.41.8h0q1.23,0,1.23.9h0c0,.68-.41,1-1.23,1h0a9.63,9.63,0,0,1-5.6-1.33q-1.83-1.33-1.83-5.17h0v-8.64q-1.08-.08-1.08-1h0q0-.81,1.08-.9h0v-3.83c0-.89.27-1.33.83-1.33h0c.66,0,1,.44,1,1.33h0v3.83h4.82c.83,0,1.25.35,1.25,1h0c0,.59-.42.89-1.25.89h-4.82Zm28.92-.93v19.23a6.21,6.21,0,0,1-.67,3.38,2.82,2.82,0,0,1-2.52,1h-9.89a4.52,4.52,0,0,1-1.87-.35,2.24,2.24,0,0,1-1.07-1,4.8,4.8,0,0,1-.45-1.3,9.09,9.09,0,0,1-.1-1.47h0c0-.86.3-1.29.91-1.29s.91.41.91,1.22h0a2.81,2.81,0,0,0,.42,1.78,1.9,1.9,0,0,0,1.51.5h9.39c.68,0,1.11-.12,1.31-.37a2.51,2.51,0,0,0,.3-1.47h0v-6.13a7.59,7.59,0,0,1-6,2.33h-1q-4,0-5.88-1.32T210,674h0v-9.53c0-.84.29-1.25.88-1.25h0c.63,0,.94.41.94,1.25h0V674a8.85,8.85,0,0,0,.29,2.51,2.31,2.31,0,0,0,1.12,1.38,4.79,4.79,0,0,0,1.79.59,21.1,21.1,0,0,0,2.73.13h1a5.72,5.72,0,0,0,4.48-1.68,7.08,7.08,0,0,0,1.5-4.89h0v-7.53c0-.84.3-1.25.91-1.25s.91.41.91,1.25Zm31.59,7H253a21.17,21.17,0,0,0-2.74.13,5.07,5.07,0,0,0-1.81.59,2.35,2.35,0,0,0-1.12,1.4,8.25,8.25,0,0,0-.3,2.5h0a2.63,2.63,0,0,0,.59,1.7,1.69,1.69,0,0,0,1.33.73h3.25a5.64,5.64,0,0,0,4.43-1.68,7,7,0,0,0,1.5-4.81h0ZM253,669.6h5.13v-2.11a2.6,2.6,0,0,0-.39-1.62,1.93,1.93,0,0,0-1.52-.48h-4.93c-2.84,0-4.26.73-4.26,2.21h0c0,.86-.32,1.3-.95,1.3h0c-.58,0-.88-.44-.88-1.3h0a3.45,3.45,0,0,1,1.61-3.14,7.94,7.94,0,0,1,4.24-1h5.41a3.21,3.21,0,0,1,2.77,1,6.62,6.62,0,0,1,.72,3.61h0v11.38c0,.84-.3,1.25-.91,1.25s-.91-.42-.91-1.28h0v-1.3a7.36,7.36,0,0,1-5.93,2.33H249a3.4,3.4,0,0,1-2.7-1.24,4.91,4.91,0,0,1-1.05-3.3h0q0-3.74,1.92-5.05T253,669.6Zm23.3-4.21h-1a5.68,5.68,0,0,0-4.46,1.68,7.12,7.12,0,0,0-1.5,4.89h0v7.53c0,.84-.31,1.25-.91,1.25s-.91-.41-.91-1.25h0v-15c0-.86.27-1.29.83-1.29h0c.66,0,1,.44,1,1.33h0v1.25a7.51,7.51,0,0,1,6-2.33h1q4,0,5.89,1.32T284.1,670h0v9.52c0,.84-.3,1.25-.88,1.25h0c-.63,0-.94-.41-.94-1.25h0V670a8.37,8.37,0,0,0-.31-2.51,2.3,2.3,0,0,0-1.12-1.38,5,5,0,0,0-1.78-.6,23.48,23.48,0,0,0-2.74-.12Zm22.53-1.93h7v-5.38c0-.89.33-1.33,1-1.33h0c.56,0,.83.44.83,1.33h0v21.41c0,.84-.3,1.25-.91,1.25s-.91-.42-.91-1.28h0v-1.3a7.51,7.51,0,0,1-6,2.33h-1q-4,0-5.89-1.32T291.11,674h0v-4q0-3.88,1.86-5.19t5.89-1.32Zm7,8.61v-6.68h-7a23.48,23.48,0,0,0-2.74.12,5,5,0,0,0-1.78.6,2.3,2.3,0,0,0-1.12,1.38,8.06,8.06,0,0,0-.31,2.51h0v4a8.1,8.1,0,0,0,.31,2.51,2.25,2.25,0,0,0,1.12,1.38,4.8,4.8,0,0,0,1.78.59,21.07,21.07,0,0,0,2.74.13h1q6,0,6-6.49ZM326.34,657H339c.77,0,1.16.33,1.16,1h0c0,.62-.39.93-1.16.93h-5.31v20.63c0,.79-.34,1.18-1,1.18h0c-.61,0-.91-.39-.91-1.18h0V658.93h-5.38c-.77,0-1.15-.32-1.15-1s.38-1,1.15-1Zm35.88,13h0v1.48H347.47V674a8.46,8.46,0,0,0,.3,2.51,2.24,2.24,0,0,0,1.14,1.38,4.85,4.85,0,0,0,1.79.59,21.45,21.45,0,0,0,2.75.13h4.68a1.86,1.86,0,0,0,1.52-.51,3,3,0,0,0,.4-1.78h0c0-.81.3-1.22.91-1.22s.91.45.91,1.33h0a9,9,0,0,1-.11,1.48,4.43,4.43,0,0,1-.44,1.28,2.11,2.11,0,0,1-1.08,1,4.22,4.22,0,0,1-1.86.36h-4.93c-2.69,0-4.65-.44-5.91-1.32s-1.88-2.6-1.88-5.18h0v-4q0-3.88,1.88-5.19c1.26-.88,3.22-1.32,5.91-1.32h1c2.68,0,4.65.44,5.89,1.32S362.22,667.38,362.22,670Zm-7.76-4.58h-1a10,10,0,0,0-4.66.75c-.85.5-1.29,1.63-1.32,3.38H360.4c0-1.75-.46-2.88-1.31-3.38A10,10,0,0,0,354.46,665.39Zm27,15.1h-4.93q-4,0-5.9-1.32t-1.9-5.18h0v-4q0-3.88,1.9-5.19t5.9-1.32h4.93a4.36,4.36,0,0,1,1.87.36,2.18,2.18,0,0,1,1.08,1,4.7,4.7,0,0,1,.44,1.29,9.14,9.14,0,0,1,.1,1.48h0c0,.86-.3,1.3-.91,1.3s-.91-.41-.91-1.22h0a2.87,2.87,0,0,0-.41-1.8,1.89,1.89,0,0,0-1.5-.49h-4.69a23.48,23.48,0,0,0-2.74.12,5.17,5.17,0,0,0-1.8.6,2.32,2.32,0,0,0-1.13,1.38,8.06,8.06,0,0,0-.31,2.51h0v4a8.1,8.1,0,0,0,.31,2.51,2.26,2.26,0,0,0,1.13,1.38,5,5,0,0,0,1.8.59,21.07,21.07,0,0,0,2.74.13h4.69a1.86,1.86,0,0,0,1.52-.51,3,3,0,0,0,.39-1.78h0c0-.81.31-1.22.91-1.22s.91.45.91,1.33h0a9.14,9.14,0,0,1-.1,1.48,4.43,4.43,0,0,1-.44,1.28,2.19,2.19,0,0,1-1.08,1A4.36,4.36,0,0,1,381.5,680.49Zm19.38-15.1h-1a5.69,5.69,0,0,0-4.48,1.68,7.12,7.12,0,0,0-1.5,4.89h0v7.53c0,.84-.3,1.25-.9,1.25s-.91-.41-.91-1.25h0V658.08c0-.89.28-1.33.84-1.33h0c.64,0,1,.44,1,1.33h0v7.71a7.57,7.57,0,0,1,6-2.33h1c2.68,0,4.65.44,5.89,1.32s1.87,2.6,1.87,5.19h0v9.52c0,.84-.29,1.25-.87,1.25h0c-.63,0-.94-.41-.94-1.25h0V670a8.41,8.41,0,0,0-.3-2.51,2.43,2.43,0,0,0-1.13-1.38,4.89,4.89,0,0,0-1.77-.6,23.91,23.91,0,0,0-2.75-.12Zm24,0h-1a5.68,5.68,0,0,0-4.47,1.68,7.07,7.07,0,0,0-1.51,4.89h0v7.53c0,.84-.3,1.25-.91,1.25s-.91-.41-.91-1.25h0v-15c0-.86.29-1.29.85-1.29h0c.65,0,1,.44,1,1.33h0v1.25a7.59,7.59,0,0,1,6-2.33h1q4,0,5.89,1.32t1.86,5.19h0v9.52c0,.84-.29,1.25-.88,1.25h0c-.62,0-.94-.41-.94-1.25h0V670a8.46,8.46,0,0,0-.29-2.51,2.37,2.37,0,0,0-1.12-1.38,5,5,0,0,0-1.77-.6,24,24,0,0,0-2.75-.12Zm23.57,15.1h-1q-4,0-5.91-1.32T439.68,674h0v-4q0-3.88,1.89-5.19t5.91-1.32h1c2.68,0,4.64.44,5.9,1.32s1.86,2.6,1.86,5.19h0v4q0,3.87-1.86,5.18C453.13,680.05,451.17,680.49,448.49,680.49Zm-1-1.93h1a21.17,21.17,0,0,0,2.74-.13,4.73,4.73,0,0,0,1.79-.59,2.26,2.26,0,0,0,1.11-1.38,8.46,8.46,0,0,0,.3-2.51h0v-4a8.41,8.41,0,0,0-.3-2.51,2.32,2.32,0,0,0-1.11-1.38,4.92,4.92,0,0,0-1.79-.6,23.59,23.59,0,0,0-2.74-.12h-1a23.48,23.48,0,0,0-2.74.12,5.29,5.29,0,0,0-1.81.6,2.4,2.4,0,0,0-1.14,1.38,8.81,8.81,0,0,0-.29,2.51h0v4a8.85,8.85,0,0,0,.29,2.51,2.34,2.34,0,0,0,1.14,1.38,5.07,5.07,0,0,0,1.81.59A21.07,21.07,0,0,0,447.48,678.56Zm20.26,1.93h-.24a3.13,3.13,0,0,1-2.76-1.06,6.46,6.46,0,0,1-.75-3.62h0V658c0-.86.31-1.29.91-1.29s.91.43.91,1.29h0v18.39a2.66,2.66,0,0,0,.4,1.65,1.94,1.94,0,0,0,1.53.48h0c.81,0,1.22.33,1.22,1h0C469,680.18,468.55,680.49,467.74,680.49Zm16,0h-1q-4,0-5.9-1.32t-1.9-5.18h0v-4q0-3.88,1.9-5.19t5.9-1.32h1q4,0,5.88,1.32t1.87,5.19h0v4q0,3.87-1.87,5.18T483.74,680.49Zm-1-1.93h1a21.1,21.1,0,0,0,2.73-.13,4.79,4.79,0,0,0,1.79-.59,2.35,2.35,0,0,0,1.12-1.38,8.85,8.85,0,0,0,.29-2.51h0v-4a8.81,8.81,0,0,0-.29-2.51,2.41,2.41,0,0,0-1.12-1.38,5,5,0,0,0-1.79-.6,23.52,23.52,0,0,0-2.73-.12h-1a23.79,23.79,0,0,0-2.75.12,5.24,5.24,0,0,0-1.8.6,2.35,2.35,0,0,0-1.13,1.38,8.41,8.41,0,0,0-.3,2.51h0v4a8.46,8.46,0,0,0,.3,2.51,2.29,2.29,0,0,0,1.13,1.38,5,5,0,0,0,1.8.59A21.35,21.35,0,0,0,482.72,678.56Zm32.11-14.1v19.23a6.21,6.21,0,0,1-.67,3.38,2.82,2.82,0,0,1-2.52,1h-9.89a4.46,4.46,0,0,1-1.87-.35,2.22,2.22,0,0,1-1.08-1,5.12,5.12,0,0,1-.44-1.3,9.09,9.09,0,0,1-.1-1.47h0c0-.86.3-1.29.91-1.29s.91.41.91,1.22h0a2.89,2.89,0,0,0,.41,1.78,1.89,1.89,0,0,0,1.5.5h9.41c.68,0,1.11-.12,1.3-.37a2.42,2.42,0,0,0,.31-1.47h0v-3.8h-7q-4,0-5.88-1.32T498.26,674h0v-4q0-3.88,1.87-5.19t5.88-1.32h1a7.59,7.59,0,0,1,6,2.33h0V664.5c0-.86.3-1.29.91-1.29s.91.41.91,1.25ZM506,678.56h7v-6.68q0-6.5-6-6.49h-1a23.71,23.71,0,0,0-2.74.12,5,5,0,0,0-1.78.6,2.37,2.37,0,0,0-1.12,1.38,8.81,8.81,0,0,0-.29,2.51h0v4a8.85,8.85,0,0,0,.29,2.51,2.31,2.31,0,0,0,1.12,1.38,4.8,4.8,0,0,0,1.78.59,21.28,21.28,0,0,0,2.74.13Zm32.89-14.1v19.23a6.3,6.3,0,0,1-.67,3.38,2.84,2.84,0,0,1-2.52,1h-9.89a4.46,4.46,0,0,1-1.87-.35,2.14,2.14,0,0,1-1.08-1,4.76,4.76,0,0,1-.44-1.3,9.09,9.09,0,0,1-.1-1.47h0c0-.86.3-1.29.91-1.29s.91.41.91,1.22h0a2.82,2.82,0,0,0,.41,1.78,1.89,1.89,0,0,0,1.5.5h9.41c.67,0,1.11-.12,1.3-.37a2.5,2.5,0,0,0,.31-1.47h0v-6.13a7.59,7.59,0,0,1-6,2.33h-1q-4,0-5.89-1.32T522.33,674h0v-9.53c0-.84.28-1.25.86-1.25h0c.64,0,1,.41,1,1.25h0V674a8.5,8.5,0,0,0,.29,2.51,2.31,2.31,0,0,0,1.12,1.38,4.75,4.75,0,0,0,1.77.59,21.56,21.56,0,0,0,2.75.13h1a5.68,5.68,0,0,0,4.47-1.68,7.09,7.09,0,0,0,1.51-4.89h0v-7.53c0-.84.3-1.25.91-1.25s.91.41.91,1.25Z"/></g></svg>