<svg width="24" height="24" viewBox="0 0 24 24" fill="none" xmlns="http://www.w3.org/2000/svg">
<path d="M12.043 6.925C10.7228 6.92633 9.45703 7.45129 8.52341 8.38472C7.5898 9.31815 7.06458 10.5838 7.06299 11.904C7.06199 12.844 7.32599 13.76 7.82399 14.553L7.94199 14.741L7.43899 16.578L9.32399 16.084L9.50499 16.192C10.2725 16.6463 11.1481 16.8856 12.04 16.885H12.041C13.3608 16.8832 14.626 16.3581 15.5593 15.425C16.4926 14.4919 17.0179 13.2268 17.02 11.907C17.0223 11.2528 16.8948 10.6047 16.6448 10.0001C16.3949 9.39558 16.0275 8.8466 15.564 8.385C15.1028 7.92085 14.5542 7.55281 13.9498 7.30219C13.3454 7.05158 12.6973 6.92337 12.043 6.925V6.925ZM14.971 14.043C14.846 14.393 14.248 14.711 13.961 14.754C13.6464 14.8083 13.3234 14.788 13.018 14.695C12.7282 14.6053 12.4435 14.5001 12.165 14.38C10.663 13.732 9.68299 12.221 9.60699 12.12C9.53299 12.02 8.99699 11.308 8.99699 10.572C8.99699 9.835 9.38299 9.473 9.51999 9.323C9.57029 9.26617 9.63178 9.22031 9.7006 9.18831C9.76943 9.15631 9.84411 9.13884 9.91999 9.137C10.02 9.137 10.119 9.138 10.207 9.142C10.299 9.146 10.422 9.107 10.543 9.399C10.668 9.699 10.968 10.435 11.005 10.51C11.042 10.584 11.067 10.672 11.018 10.772C10.968 10.873 10.944 10.934 10.868 11.022C10.794 11.11 10.711 11.217 10.644 11.285C10.569 11.359 10.491 11.44 10.578 11.59C10.666 11.739 10.966 12.23 11.41 12.627C11.982 13.137 12.465 13.294 12.614 13.37C12.764 13.444 12.851 13.433 12.939 13.332C13.026 13.231 13.313 12.895 13.413 12.746C13.513 12.596 13.612 12.621 13.75 12.67C13.887 12.721 14.623 13.082 14.772 13.157C14.92 13.231 15.021 13.269 15.059 13.332C15.095 13.394 15.095 13.693 14.971 14.043V14.043Z" fill="#00BB2D"/>
</svg>
