<svg width="68" height="68" viewBox="0 0 68 68" fill="none" xmlns="http://www.w3.org/2000/svg">
<path d="M20.8957 47.5462L24.4374 43.1205L13.0361 34L24.4374 24.8795L20.8957 20.4538L6.72911 31.7872C6.39718 32.0526 6.12921 32.3893 5.94505 32.7724C5.7609 33.1554 5.66528 33.575 5.66528 34C5.66528 34.425 5.7609 34.8446 5.94505 35.2276C6.12921 35.6107 6.39718 35.9474 6.72911 36.2128L20.8957 47.5462ZM47.1041 20.4538L43.5624 24.8795L54.9637 34L43.5624 43.1205L47.1041 47.5462L61.2707 36.2128C61.6027 35.9474 61.8706 35.6107 62.0548 35.2276C62.239 34.8446 62.3346 34.425 62.3346 34C62.3346 33.575 62.239 33.1554 62.0548 32.7724C61.8706 32.3893 61.6027 32.0526 61.2707 31.7872L47.1041 20.4538ZM42.4319 9.11199L31.0986 60.112L25.5651 58.8823L36.8984 7.88232L42.4319 9.11199Z" fill="white"/>
</svg>
