<svg width="44" height="44" viewBox="0 0 44 44" fill="none" xmlns="http://www.w3.org/2000/svg">
<path d="M17.4166 22C21.461 22 24.75 18.711 24.75 14.6667C24.75 10.6223 21.461 7.33334 17.4166 7.33334C13.3723 7.33334 10.0833 10.6223 10.0833 14.6667C10.0833 18.711 13.3723 22 17.4166 22ZM20.1666 23.8333H14.6666C8.60013 23.8333 3.66663 28.7668 3.66663 34.8333V36.6667H31.1666V34.8333C31.1666 28.7668 26.2331 23.8333 20.1666 23.8333Z" fill="white"/>
<path d="M30.4407 20.2547C31.5573 18.3518 32.0395 16.1431 31.8176 13.948C31.4894 10.6773 29.6634 7.78618 26.6787 5.80801L24.6529 8.86235C26.7044 10.2227 27.9529 12.1605 28.1692 14.3147C28.269 15.3159 28.1443 16.3267 27.8044 17.2736C27.4644 18.2206 26.9177 19.0799 26.2039 19.789L24.0186 21.9743L26.9849 22.8452C34.7436 25.1185 34.8334 32.9212 34.8334 33H38.5001C38.5001 29.7202 36.7474 23.3108 30.4407 20.2547Z" fill="white"/>
</svg>
